<mxfile host="Electron" agent="Mozilla/5.0 (Macintosh; Intel Mac OS X 10_15_7) AppleWebKit/537.36 (KHTML, like Gecko) draw.io/24.7.5 Chrome/126.0.6478.183 Electron/31.3.0 Safari/537.36" version="24.7.5">
  <diagram name="Page-1" id="EMT705Tx_JR4VmNtWtbU">
    <mxGraphModel dx="1368" dy="879" grid="1" gridSize="10" guides="1" tooltips="1" connect="1" arrows="1" fold="1" page="1" pageScale="1" pageWidth="1600" pageHeight="500" math="0" shadow="0">
      <root>
        <mxCell id="0" />
        <mxCell id="1" parent="0" />
        <mxCell id="btIqtcHu5nlS-nes7o_g-9" value="" style="edgeStyle=orthogonalEdgeStyle;rounded=0;orthogonalLoop=1;jettySize=auto;html=1;fillColor=#f5f5f5;strokeColor=#999999;endArrow=block;endFill=1;strokeWidth=7;exitX=0.25;exitY=1;exitDx=0;exitDy=0;endSize=6;entryX=0.25;entryY=0;entryDx=0;entryDy=0;" edge="1" parent="1" source="btIqtcHu5nlS-nes7o_g-10" target="btIqtcHu5nlS-nes7o_g-14">
          <mxGeometry relative="1" as="geometry">
            <Array as="points" />
          </mxGeometry>
        </mxCell>
        <mxCell id="btIqtcHu5nlS-nes7o_g-16" value="&lt;font style=&quot;font-size: 24px;&quot;&gt;Emulate&lt;/font&gt;" style="edgeLabel;html=1;align=center;verticalAlign=middle;resizable=0;points=[];" vertex="1" connectable="0" parent="btIqtcHu5nlS-nes7o_g-9">
          <mxGeometry x="-0.0846" y="1" relative="1" as="geometry">
            <mxPoint as="offset" />
          </mxGeometry>
        </mxCell>
        <mxCell id="btIqtcHu5nlS-nes7o_g-10" value="&lt;b&gt;Single Device Training&lt;/b&gt;" style="rounded=1;whiteSpace=wrap;html=1;fontSize=24;fillColor=#f8cecc;strokeColor=#b85450;verticalAlign=middle;" vertex="1" parent="1">
          <mxGeometry x="10" y="130" width="600" height="50" as="geometry" />
        </mxCell>
        <mxCell id="btIqtcHu5nlS-nes7o_g-14" value="&lt;b&gt;nD Parallel Training&lt;/b&gt;" style="rounded=1;whiteSpace=wrap;html=1;fontSize=24;fillColor=#dae8fc;strokeColor=#6c8ebf;verticalAlign=middle;" vertex="1" parent="1">
          <mxGeometry x="10" y="310" width="600" height="50" as="geometry" />
        </mxCell>
        <mxCell id="btIqtcHu5nlS-nes7o_g-15" value="&lt;span style=&quot;font-size: 24px;&quot;&gt;Emulate&lt;/span&gt;" style="edgeStyle=orthogonalEdgeStyle;rounded=0;orthogonalLoop=1;jettySize=auto;html=1;fillColor=#f5f5f5;strokeColor=#999999;endArrow=block;endFill=1;strokeWidth=7;exitX=0.75;exitY=0;exitDx=0;exitDy=0;endSize=6;entryX=0.75;entryY=1;entryDx=0;entryDy=0;dashed=1;dashPattern=1 1;" edge="1" parent="1" source="btIqtcHu5nlS-nes7o_g-14" target="btIqtcHu5nlS-nes7o_g-10">
          <mxGeometry relative="1" as="geometry">
            <mxPoint x="170" y="190" as="sourcePoint" />
            <mxPoint x="170" y="320" as="targetPoint" />
            <Array as="points" />
          </mxGeometry>
        </mxCell>
        <mxCell id="btIqtcHu5nlS-nes7o_g-33" value="&lt;b style=&quot;font-size: 24px;&quot;&gt;&lt;font style=&quot;font-size: 24px;&quot;&gt;Parallelism&lt;/font&gt;&lt;/b&gt;&lt;div style=&quot;font-size: 24px;&quot;&gt;&lt;b&gt;&lt;font style=&quot;font-size: 24px;&quot;&gt;Correctness&lt;/font&gt;&lt;/b&gt;&lt;/div&gt;" style="rounded=1;whiteSpace=wrap;html=1;fillColor=#d5e8d4;strokeColor=#82b366;fontSize=28;" vertex="1" parent="1">
          <mxGeometry x="755" y="50" width="170" height="390" as="geometry" />
        </mxCell>
        <mxCell id="btIqtcHu5nlS-nes7o_g-35" value="&lt;b style=&quot;font-size: 24px;&quot;&gt;&lt;font style=&quot;font-size: 24px;&quot;&gt;Configuration&lt;/font&gt;&lt;/b&gt;&lt;div style=&quot;font-size: 24px;&quot;&gt;&lt;b&gt;&lt;font style=&quot;font-size: 24px;&quot;&gt;Correctness&lt;/font&gt;&lt;/b&gt;&lt;/div&gt;" style="rounded=1;whiteSpace=wrap;html=1;fillColor=#d5e8d4;strokeColor=#82b366;fontSize=28;" vertex="1" parent="1">
          <mxGeometry x="955" y="50" width="170" height="390" as="geometry" />
        </mxCell>
        <mxCell id="btIqtcHu5nlS-nes7o_g-36" value="&lt;b style=&quot;font-size: 24px;&quot;&gt;&lt;font style=&quot;font-size: 24px;&quot;&gt;Model&lt;/font&gt;&lt;/b&gt;&lt;div style=&quot;font-size: 24px;&quot;&gt;&lt;b&gt;&lt;font style=&quot;font-size: 24px;&quot;&gt;Correctness&lt;/font&gt;&lt;/b&gt;&lt;/div&gt;" style="rounded=1;whiteSpace=wrap;html=1;fillColor=#d5e8d4;strokeColor=#82b366;fontSize=28;" vertex="1" parent="1">
          <mxGeometry x="1155" y="50" width="170" height="390" as="geometry" />
        </mxCell>
        <mxCell id="btIqtcHu5nlS-nes7o_g-37" value="&lt;b style=&quot;font-size: 24px;&quot;&gt;&lt;font style=&quot;font-size: 24px;&quot;&gt;System&lt;/font&gt;&lt;/b&gt;&lt;div style=&quot;font-size: 24px;&quot;&gt;&lt;b&gt;&lt;font style=&quot;font-size: 24px;&quot;&gt;Correctness&lt;/font&gt;&lt;/b&gt;&lt;/div&gt;" style="rounded=1;whiteSpace=wrap;html=1;fillColor=#d5e8d4;strokeColor=#82b366;fontSize=28;" vertex="1" parent="1">
          <mxGeometry x="1355" y="50" width="170" height="390" as="geometry" />
        </mxCell>
        <mxCell id="btIqtcHu5nlS-nes7o_g-39" value="" style="endArrow=none;html=1;rounded=0;strokeWidth=5;strokeColor=#999999;" edge="1" parent="1">
          <mxGeometry width="50" height="50" relative="1" as="geometry">
            <mxPoint x="640" y="245" as="sourcePoint" />
            <mxPoint x="1590" y="245" as="targetPoint" />
          </mxGeometry>
        </mxCell>
        <mxCell id="btIqtcHu5nlS-nes7o_g-42" value="&lt;font style=&quot;font-size: 24px;&quot;&gt;Single&lt;/font&gt;&lt;div style=&quot;font-size: 24px;&quot;&gt;&lt;font style=&quot;font-size: 24px;&quot;&gt;Device&lt;/font&gt;&lt;/div&gt;&lt;div style=&quot;font-size: 24px;&quot;&gt;&lt;font style=&quot;font-size: 24px;&quot;&gt;Training&lt;/font&gt;&lt;/div&gt;" style="text;html=1;align=left;verticalAlign=middle;resizable=0;points=[];autosize=1;strokeColor=none;fillColor=none;" vertex="1" parent="1">
          <mxGeometry x="645" y="110" width="110" height="100" as="geometry" />
        </mxCell>
        <mxCell id="btIqtcHu5nlS-nes7o_g-43" value="&lt;span style=&quot;font-size: 24px;&quot;&gt;nD&lt;/span&gt;&lt;div&gt;&lt;span style=&quot;font-size: 24px;&quot;&gt;Parallel&lt;/span&gt;&lt;/div&gt;&lt;div style=&quot;&quot;&gt;&lt;span style=&quot;font-size: 24px;&quot;&gt;Training&lt;/span&gt;&lt;/div&gt;" style="text;html=1;align=left;verticalAlign=middle;resizable=0;points=[];autosize=1;strokeColor=none;fillColor=none;" vertex="1" parent="1">
          <mxGeometry x="645" y="280" width="110" height="100" as="geometry" />
        </mxCell>
        <mxCell id="btIqtcHu5nlS-nes7o_g-44" value="" style="endArrow=none;html=1;rounded=0;strokeWidth=5;strokeColor=#999999;" edge="1" parent="1">
          <mxGeometry width="50" height="50" relative="1" as="geometry">
            <mxPoint x="640" y="245" as="sourcePoint" />
            <mxPoint x="1590" y="245" as="targetPoint" />
          </mxGeometry>
        </mxCell>
      </root>
    </mxGraphModel>
  </diagram>
</mxfile>
